<svg width="75" height="25" xmlns="http://www.w3.org/2000/svg">
 <g>
  <title>PALc</title>
  <path id="svg_1" d="m1.664,25.6l0,-22.08q3.264,-0.32 9.344,-0.32q5.28,0 7.216,1.568t1.936,5.952q0,4.32 -1.792,5.888t-6.4,1.568q-1.728,0 -3.36,-0.192l0,7.616l-6.944,0zm6.944,-12.32l2.24,0q1.408,0 1.888,-0.512t0.48,-2.048q0,-1.568 -0.48,-2.096t-1.888,-0.528l-2.24,0l0,5.184z" fill="#CE7975"/>
  <path id="svg_2" d="m31.33569,20.832l-6.048,0l-1.12,4.768l-7.072,0l5.728,-20.288q0.224,-0.8 0.864,-1.296t1.472,-0.496l6.304,0q0.832,0 1.472,0.496t0.864,1.296l5.728,20.288l-7.072,0l-1.12,-4.768zm-1.12,-4.864l-1.088,-4.736q-0.288,-1.504 -0.384,-2.528l-0.864,0q-0.192,1.504 -0.384,2.528l-1.088,4.736l3.808,0z" fill="#CE7975"/>
  <path id="svg_3" d="m46.138,3.66133l0,15.424q0,0.512 0.368,0.832t0.976,0.32l7.424,0l0.32,5.184q-3.296,0.448 -10.784,0.448q-2.368,0 -3.808,-1.392t-1.44,-3.632l0,-17.184c2.31467,0 4.62933,0 6.944,0z" fill="#CE7975"/>
  <path id="svg_4" d="m70.54836,20.30667l0.608,4.192q-2.56,1.344 -6.976,1.344q-4.704,0 -6.608,-1.888t-1.904,-6.528t1.92,-6.528t6.656,-1.888q4.224,0 6.688,1.184l-0.93236,4.16l-4.60364,0q-1.568,0 -2.128,0.624t-0.56,2.448q0,1.856 0.56,2.48t2.128,0.624q3.136,0 5.152,-0.224z" fill="#CE7975"/>
  <path fill="null" stroke="null" stroke-width="null" stroke-opacity="null" fill-opacity="null" opacity="0.5" d="m44.23655,5.92546" id="svg_5"/>
 </g>
</svg>
